<svg xmlns="http://www.w3.org/2000/svg" width="137.904" height="124.532" viewBox="0 0 137.904 124.532">
  <path id="Path_3" data-name="Path 3" d="M442.616,306.012c-1.063,20.351-20.012,37.394-45.832,43.208V298.609H349.508v48.311c-22.264-7.52-37.684-23.817-37.684-42.718,0-24.692,26.328-44.952,59.86-46.982v10.49h-3.032a3.247,3.247,0,0,0-3.17,2.551h-4.2a6.106,6.106,0,0,0-6.107,6.107H391.2a6.106,6.106,0,0,0-6.106-6.107h-4.2a3.247,3.247,0,0,0-3.17-2.551h-3.031V239.857a14.239,14.239,0,0,0-.528-3.839l-.693-2.469a.293.293,0,0,0-.565,0l-.708,2.543a14.114,14.114,0,0,0-.515,3.778v16.922c-37.146.794-66.924,23.382-66.924,51.12,0,21.932,18.6,40.639,44.748,47.9a82.892,82.892,0,0,0,8.37,1.885V327.226c0-7.589,2.748-13.915,7.962-18.341s12.893-6.961,22.747-6.961v55.942q4.206-.684,8.2-1.74c26.738-7.037,45.88-25.965,45.88-48.215C442.664,307.276,442.65,306.641,442.616,306.012Z" transform="translate(-304.76 -233.334)" fill="#af0f0f"/>
</svg>
